name Walk3.mot
datacolumns 19
datarows 30
range 1.95000000 1.97900000
endheader

                time	   L_ground_force_vx	   L_ground_force_vy	   L_ground_force_vz	   L_ground_force_px	   L_ground_force_py	   L_ground_force_pz	   R_ground_force_vx	   R_ground_force_vy	   R_ground_force_vz	   R_ground_force_px	   R_ground_force_py	   R_ground_force_pz	   L_ground_torque_x	   L_ground_torque_y	   L_ground_torque_z	   R_ground_torque_x	   R_ground_torque_y	   R_ground_torque_z	
          1.95000000	          0.00000000	          0.00000000	          0.00000000	          0.00000000	          0.00000000	          0.00000000	         -2.21146389	        520.95889927	        -34.40009210	          0.12657697	          0.00000000	          0.08149649	          0.00000000	          0.00000000	          0.00000000	          0.00000000	          0.53901280	          0.00000000	
          1.95100000	          0.00000000	          0.00000000	          0.00000000	          0.00000000	          0.00000000	          0.00000000	         -2.01544435	        520.07077936	        -34.37333474	          0.12684326	          0.00000000	          0.08149549	          0.00000000	          0.00000000	          0.00000000	          0.00000000	          0.52139778	          0.00000000	
          1.95200000	          0.00000000	          0.00000000	          0.00000000	          0.00000000	          0.00000000	          0.00000000	         -1.81430422	        519.13729645	        -34.33890458	          0.12700960	          0.00000000	          0.08146744	          0.00000000	          0.00000000	          0.00000000	          0.00000000	          0.51076214	          0.00000000	
          1.95300000	          0.00000000	          0.00000000	          0.00000000	          0.00000000	          0.00000000	          0.00000000	         -1.59498982	        518.20068535	        -34.29950952	          0.12714513	          0.00000000	          0.08144815	          0.00000000	          0.00000000	          0.00000000	          0.00000000	          0.50858531	          0.00000000	
          1.95400000	          0.00000000	          0.00000000	          0.00000000	          0.00000000	          0.00000000	          0.00000000	         -1.34880407	        517.33390221	        -34.26088190	          0.12734388	          0.00000000	          0.08146136	          0.00000000	          0.00000000	          0.00000000	          0.00000000	          0.51617302	          0.00000000	
          1.95500000	          0.00000000	          0.00000000	          0.00000000	          0.00000000	          0.00000000	          0.00000000	         -1.07017525	        516.58325258	        -34.21948176	          0.12766367	          0.00000000	          0.08148680	          0.00000000	          0.00000000	          0.00000000	          0.00000000	          0.53047271	          0.00000000	
          1.95600000	          0.00000000	          0.00000000	          0.00000000	          0.00000000	          0.00000000	          0.00000000	         -0.76903029	        515.92284010	        -34.15956640	          0.12808206	          0.00000000	          0.08147400	          0.00000000	          0.00000000	          0.00000000	          0.00000000	          0.54536044	          0.00000000	
          1.95700000	          0.00000000	          0.00000000	          0.00000000	          0.00000000	          0.00000000	          0.00000000	         -0.47335467	        515.30731733	        -34.07284942	          0.12853728	          0.00000000	          0.08139594	          0.00000000	          0.00000000	          0.00000000	          0.00000000	          0.55628242	          0.00000000	
          1.95800000	          0.00000000	          0.00000000	          0.00000000	          0.00000000	          0.00000000	          0.00000000	         -0.20579386	        514.74529360	        -33.96797016	          0.12898582	          0.00000000	          0.08127100	          0.00000000	          0.00000000	          0.00000000	          0.00000000	          0.56086726	          0.00000000	
          1.95900000	          0.00000000	          0.00000000	          0.00000000	          0.00000000	          0.00000000	          0.00000000	          0.03429733	        514.29558239	        -33.85394653	          0.12942084	          0.00000000	          0.08113926	          0.00000000	          0.00000000	          0.00000000	          0.00000000	          0.55554750	          0.00000000	
          1.96000000	          0.00000000	          0.00000000	          0.00000000	          0.00000000	          0.00000000	          0.00000000	          0.26565815	        513.99991790	        -33.73045384	          0.12985143	          0.00000000	          0.08103523	          0.00000000	          0.00000000	          0.00000000	          0.00000000	          0.53938858	          0.00000000	
          1.96100000	          0.00000000	          0.00000000	          0.00000000	          0.00000000	          0.00000000	          0.00000000	          0.51403355	        513.81131311	        -33.60065023	          0.13025787	          0.00000000	          0.08095900	          0.00000000	          0.00000000	          0.00000000	          0.00000000	          0.52214879	          0.00000000	
          1.96200000	          0.00000000	          0.00000000	          0.00000000	          0.00000000	          0.00000000	          0.00000000	          0.79789417	        513.62245921	        -33.47530976	          0.13060010	          0.00000000	          0.08087199	          0.00000000	          0.00000000	          0.00000000	          0.00000000	          0.51722394	          0.00000000	
          1.96300000	          0.00000000	          0.00000000	          0.00000000	          0.00000000	          0.00000000	          0.00000000	          1.11088310	        513.38600775	        -33.36140038	          0.13088279	          0.00000000	          0.08074513	          0.00000000	          0.00000000	          0.00000000	          0.00000000	          0.52863953	          0.00000000	
          1.96400000	          0.00000000	          0.00000000	          0.00000000	          0.00000000	          0.00000000	          0.00000000	          1.42258892	        513.15815032	        -33.25798035	          0.13115776	          0.00000000	          0.08059706	          0.00000000	          0.00000000	          0.00000000	          0.00000000	          0.55366601	          0.00000000	
          1.96500000	          0.00000000	          0.00000000	          0.00000000	          0.00000000	          0.00000000	          0.00000000	          1.70052642	        513.02207432	        -33.15854606	          0.13146846	          0.00000000	          0.08046821	          0.00000000	          0.00000000	          0.00000000	          0.00000000	          0.58928678	          0.00000000	
          1.96600000	          0.00000000	          0.00000000	          0.00000000	          0.00000000	          0.00000000	          0.00000000	          1.92932707	        513.01275323	        -33.05247729	          0.13183058	          0.00000000	          0.08037153	          0.00000000	          0.00000000	          0.00000000	          0.00000000	          0.62985605	          0.00000000	
          1.96700000	          0.00000000	          0.00000000	          0.00000000	          0.00000000	          0.00000000	          0.00000000	          2.11152326	        513.11781884	        -32.92751355	          0.13223724	          0.00000000	          0.08028650	          0.00000000	          0.00000000	          0.00000000	          0.00000000	          0.66679394	          0.00000000	
          1.96800000	          0.00000000	          0.00000000	          0.00000000	          0.00000000	          0.00000000	          0.00000000	          2.25256744	        513.31776876	        -32.77354524	          0.13266711	          0.00000000	          0.08019505	          0.00000000	          0.00000000	          0.00000000	          0.00000000	          0.69316496	          0.00000000	
          1.96900000	          0.00000000	          0.00000000	          0.00000000	          0.00000000	          0.00000000	          0.00000000	          2.35198500	        513.59704434	        -32.58863365	          0.13311121	          0.00000000	          0.08010446	          0.00000000	          0.00000000	          0.00000000	          0.00000000	          0.70568304	          0.00000000	
          1.97000000	          0.00000000	          0.00000000	          0.00000000	          0.00000000	          0.00000000	          0.00000000	          2.41510487	        513.92146809	        -32.38165591	          0.13358361	          0.00000000	          0.08003168	          0.00000000	          0.00000000	          0.00000000	          0.00000000	          0.70527134	          0.00000000	
          1.97100000	          0.00000000	          0.00000000	          0.00000000	          0.00000000	          0.00000000	          0.00000000	          2.46247884	        514.24429025	        -32.16437069	          0.13409325	          0.00000000	          0.07997592	          0.00000000	          0.00000000	          0.00000000	          0.00000000	          0.69720432	          0.00000000	
          1.97200000	          0.00000000	          0.00000000	          0.00000000	          0.00000000	          0.00000000	          0.00000000	          2.51510899	        514.55069743	        -31.94255107	          0.13462454	          0.00000000	          0.07992391	          0.00000000	          0.00000000	          0.00000000	          0.00000000	          0.68874262	          0.00000000	
          1.97300000	          0.00000000	          0.00000000	          0.00000000	          0.00000000	          0.00000000	          0.00000000	          2.57738485	        514.86667291	        -31.71860399	          0.13515310	          0.00000000	          0.07987946	          0.00000000	          0.00000000	          0.00000000	          0.00000000	          0.68710631	          0.00000000	
          1.97400000	          0.00000000	          0.00000000	          0.00000000	          0.00000000	          0.00000000	          0.00000000	          2.64523922	        515.22271220	        -31.49665735	          0.13566816	          0.00000000	          0.07986208	          0.00000000	          0.00000000	          0.00000000	          0.00000000	          0.69612102	          0.00000000	
          1.97500000	          0.00000000	          0.00000000	          0.00000000	          0.00000000	          0.00000000	          0.00000000	          2.72340350	        515.63549847	        -31.28010071	          0.13617600	          0.00000000	          0.07987484	          0.00000000	          0.00000000	          0.00000000	          0.00000000	          0.71189571	          0.00000000	
          1.97600000	          0.00000000	          0.00000000	          0.00000000	          0.00000000	          0.00000000	          0.00000000	          2.82764903	        516.10464345	        -31.07020946	          0.13667675	          0.00000000	          0.07988360	          0.00000000	          0.00000000	          0.00000000	          0.00000000	          0.72766278	          0.00000000	
          1.97700000	          0.00000000	          0.00000000	          0.00000000	          0.00000000	          0.00000000	          0.00000000	          2.97372433	        516.60353735	        -30.86903249	          0.13714192	          0.00000000	          0.07982996	          0.00000000	          0.00000000	          0.00000000	          0.00000000	          0.74304571	          0.00000000	
          1.97800000	          0.00000000	          0.00000000	          0.00000000	          0.00000000	          0.00000000	          0.00000000	          3.16078054	        517.10440112	        -30.67875078	          0.13754688	          0.00000000	          0.07967791	          0.00000000	          0.00000000	          0.00000000	          0.00000000	          0.76229771	          0.00000000	
          1.97900000	          0.00000000	          0.00000000	          0.00000000	          0.00000000	          0.00000000	          0.00000000	          3.36625104	        517.62521131	        -30.49674511	          0.13792365	          0.00000000	          0.07945220	          0.00000000	          0.00000000	          0.00000000	          0.00000000	          0.78661905	          0.00000000	
